<?xml version="1.0" encoding="UTF-8"?>
<svg id="Layer_1" data-name="Layer 1" xmlns="http://www.w3.org/2000/svg" viewBox="0 0 1647.27 297.14">
  <defs>
    <style>
      .cls-1 {
        fill: #231f20;
      }

      .cls-2 {
        fill: #306454;
      }

      .cls-3 {
        fill: #fff;
      }
    </style>
  </defs>
  <path class="cls-1" d="M433.77,215.9v-109.8h26.9v86.6h39.5v23.3h-66.5l.1-.1Z"/>
  <path class="cls-1" d="M515.97,106.1h26.6v109.8h-26.6v-109.8Z"/>
  <path class="cls-1" d="M629.97,157.3c15,2.1,21.2,15.6,21.2,26.1,0,15.9-9.4,32.5-36.2,32.5h-48.1v-109.8h45c20.4,0,33.6,11.8,33.6,29.5s-3.3,18.3-15.5,21.7ZM607.97,148.5c5.6,0,9.2-3.5,9.2-9.1s-2.6-10-8.9-10h-14.7v19.1h14.4ZM593.67,170.3v22.3h17.1c8.3,0,12.3-5.7,12.3-11.3s-3.5-11-12.4-11h-17Z"/>
  <path class="cls-1" d="M669.17,215.9v-109.8h71.3v23.3h-44.6v21h39.2v22.8h-39.2v19.4h46.1v23.3h-72.8Z"/>
  <path class="cls-1" d="M761.47,215.9v-109.8h45.4c26,0,37.6,18.3,37.6,36.7s-8.4,30.9-26.3,35.2l26.8,37.9h-30.9l-23.6-36.7h-2.4v36.7h-26.6ZM788.17,129.4v26.9h17.5c8.8,0,12-7,12-13.6s-3.2-13.4-12-13.4h-17.5v.1Z"/>
  <path class="cls-1" d="M921.87,190.8h-34.6l-9.2,25.2h-28.5l40.5-109.8h29l40.3,109.8h-28.2l-9.2-25.2h-.1ZM894.47,167.8h20.6l-10.7-36.2-9.9,36.2Z"/>
  <path class="cls-1" d="M994.27,129.4v-23.3h83.4v23.3h-28.4v86.6h-26.6v-86.6h-28.4Z"/>
  <path class="cls-1" d="M1092.67,175.9v-69.8h26.8v69.8c0,9.7,8.3,16.4,16.6,16.4s16.6-6.7,16.6-16.4v-69.8h26.8v69.8c0,25.3-20.6,41.5-43.4,41.5s-43.4-16.1-43.4-41.5Z"/>
  <path class="cls-2" d="M1336.37,192.2c-10.2,15.3-26.9,25.2-46.7,25.2-31.1,0-56-25.3-56-56.3s24.9-56.4,56-56.4,36.7,9.9,46.9,25.2c1.1-.5-4.6,3.2-10.4,7.2l-11.8,8.3c-5.1-8.3-14.3-13.9-24.7-13.9-16.3,0-29,13.2-29,29.7s12.8,29.5,29,29.5,19.6-5.4,24.9-13.7l21.8,15.3v-.1Z"/>
  <path class="cls-2" d="M1410.67,190.8h-34.6l-9.2,25.2h-28.5l40.5-109.8h29l40.3,109.8h-28.2l-9.2-25.2h-.1ZM1383.27,167.8h20.6l-10.7-36.2-9.9,36.2Z"/>
  <path class="cls-2" d="M1479.37,183.3c.5,5.9,4.1,10.7,13.6,10.7s13.6-2.9,13.6-9.9,0-5.3-11-9.1l-12.9-4.3c-24.6-6.7-28.7-22.2-28.7-32.4,0-19.9,16.3-33.6,38.4-33.6s37.8,12.6,37.8,34.3h-26.6c0-5.9-3.3-10.2-11.5-10.2s-11.6,3.5-11.6,8.8.6,6.1,10.2,8.9l12.6,4c28.9,8.9,30.4,25.7,30.4,33.5,0,24.2-22.2,33.5-40.7,33.5s-40.5-13.2-40.5-34.1h26.9v-.1Z"/>
  <path class="cls-2" d="M1609.77,190.8h-34.6l-9.2,25.2h-28.5l40.5-109.8h29l40.3,109.8h-28.2l-9.2-25.2h-.1ZM1582.37,167.8h20.6l-10.7-36.2-9.9,36.2Z"/>
  <path class="cls-3" d="M200.07,19.5h96.3c10.7,9.6,26,16,30.5,30.7,5.7,18.5-4,37.3-22.4,43.1l17.8,12.9c31.6-19.9,34.4-62.6,5.6-86.7-4.7-3.9-21.1-17-26-18.6-1.5-.5-3.1-.7-4.6-.9h-109.5c-8.8,2.1-9,8.8-8.1,16.4.8,6.4,3,12.5,5.5,18.4,8.2-2.6,16.7-1.5,24.6,1.4-4.3-4.8-8.3-10.3-9.7-16.7h0Z"/>
  <path class="cls-3" d="M295.97,62.5c5.8-5.8,2.3-14.8-5.3-16.4-19.2-1.3-39.8,1.3-58.9,0-2.7-.2-5.4-1.2-8.1-1.4l34.2,20.8c10-.5,21.6,1.1,31.5.1,2.3-.2,4.9-1.3,6.6-2.9v-.2Z"/>
  <path class="cls-3" d="M264.57,83.1l-61.2-36.6c-8.4-3.3-17.6-1-24.3,4.8l-19.5,19c5.5,5.2,10.6,11.2,13.5,18.3.4.3,2.8-1.7,3.2-2.1,2.5-2.1,17.9-18.5,19.2-18.3l48.8,29.7c3.9-3,7.1-6.9,11.2-9.7s5.5-2.8,8.3-4.2.9.2.7-1l.1.1Z"/>
  <path class="cls-3" d="M130.87,180.6c-7.7,1.6-15.4,1.5-23.2,1.4v51.3c0,5,5.4,12.7,9.3,15.7,18.9,11,37,25.8,56,36.4s6.6,3.6,7.6,2.9c-5.1-5.9-9.5-13.2-10.2-21.1-.2-2.6.6-9.4-.4-11.2l-39-25.3v-50.1h-.1Z"/>
  <path d="M276.07,93.5c6.2,0,10.6,2.3,15.6,5.5,20.7,13.4,40.4,29.2,60.2,43.8,3.2,4.2,5.2,9,5.6,14.4,1.9,27.4-1.5,56.9,0,84.5-1,9.3-6.3,17.1-15,20.7-44.1,9.4-89,16.1-133.4,24.5-13.6,1.1-24.5-7.4-27-20.6v-85.4c.7-9.5,6.9-14.5,13.2-20.7,22.1-21.5,45.5-41.9,68.1-62.9,3.7-2.3,8.5-3.8,12.8-3.8h-.1ZM205.17,182.7v81l129.1-23.4v-82.6c-.1,0-57.6-41-57.6-41h-.9l-70.6,66Z"/>
  <path d="M8.17,56.7h109.9c2.8,0,5.1.8,7.5,2.1,5.9,3.2,22.7,16.3,27.6,21.2,38.3,38.6-.1,103.7-52.9,88.2-23.7-7-32.5-27.8-46.6-45.7-1.6-1.3-5.8-1-8.2-1.5C23.47,116.5,5.77,99.7,1.17,77.5c-1.6-7.9-3.2-18.7,7.1-20.8h-.1ZM76.97,122.1c8.8,11.4,14.5,24.2,29.7,28.1,30.9,7.8,54.5-26.6,36.1-52.4-6.3-8.8-18-14.6-26.1-21.7H20.77c3.4,14.4,17.1,25.4,31.8,26.5,18.4,1.4,38.9-1.6,57.1,0,7.7.7,12.4,8.2,8,15s-5,4.5-7.1,4.5h-33.7.1Z"/>
  <path d="M200.07,19.5c1.5,6.4,5.4,11.9,9.7,16.7-7.9-2.9-16.4-4-24.6-1.4-2.5-5.9-4.8-12-5.5-18.4-.9-7.6-.7-14.4,8.1-16.4h109.5c1.5.2,3.2.4,4.6.9,4.8,1.6,21.3,14.7,26,18.6,28.7,24.1,25.9,66.8-5.6,86.7l-17.8-12.9c18.4-5.8,28.1-24.5,22.4-43.1-4.6-14.8-19.9-21.1-30.5-30.7h-96.3Z"/>
  <path d="M130.87,180.6v50.1l39,25.3c1,1.7.2,8.6.4,11.2.7,8,5.1,15.2,10.2,21.1-.9.7-6.4-2.2-7.6-2.9-19-10.6-37.1-25.4-56-36.4-3.9-3-9.3-10.7-9.3-15.7v-51.3c7.8.1,15.5.2,23.2-1.4h.1Z"/>
  <path d="M264.57,83.1c.2,1.2-.2.7-.7,1-2.9,1.5-5.5,2.3-8.3,4.2-4.1,2.8-7.3,6.7-11.2,9.7l-48.8-29.7c-1.3-.2-16.7,16.2-19.2,18.3-.5.4-2.9,2.4-3.2,2.1-2.8-7.1-8-13.1-13.5-18.3l19.5-19c6.6-5.8,15.9-8.1,24.3-4.8l61.2,36.6-.1-.1Z"/>
  <path d="M295.97,62.5c-1.6,1.6-4.3,2.7-6.6,2.9-9.9,1-21.4-.6-31.5-.1l-34.2-20.8c2.7.2,5.4,1.2,8.1,1.4,19,1.4,39.7-1.2,58.9,0,7.6,1.7,11,10.7,5.3,16.4v.2Z"/>
  <path d="M322.47,228.5l-.2,2.7-29.9,5.3c-13-9.7-32.7-15.5-34.3-34.3v-52.5c.2-1,2.2-2.7,3-3.5,5.2-5,10.7-9.7,16-14.7l4.2,3.3.2,66.6c.5,1.2,6.8,5,8.3,6.1,10.7,7.2,21.8,13.9,32.6,21h.1Z"/>
</svg>